<svg xmlns="http://www.w3.org/2000/svg" xmlns:xlink="http://www.w3.org/1999/xlink"><symbol id="header-circles1" viewBox="0 0 414 414"><circle cx="207" cy="207" r="80.5" stroke="#20B486" stroke-opacity="0.25"/><circle cx="207.5" cy="207.5" r="132" stroke="#20B486" stroke-opacity="0.25"/><circle cx="207" cy="207" r="171.5" stroke="#20B486" stroke-opacity="0.25"/><circle cx="207" cy="207" r="206.5" stroke="#20B486" stroke-opacity="0.25"/><circle cx="52" cy="70" r="5" stroke="#20B486" fill="#20B486"/></symbol><symbol id="header-circles2" viewBox="0 0 414 414"><circle cx="207" cy="207" r="80.5" stroke="#20B486" stroke-opacity="0.25"/><circle cx="207.5" cy="207.5" r="132" stroke="#20B486" stroke-opacity="0.25"/><circle cx="207" cy="207" r="171.5" stroke="#20B486" stroke-opacity="0.25"/><circle cx="207" cy="207" r="206.5" stroke="#20B486" stroke-opacity="0.25"/><circle cx="30" cy="315" r="7" stroke="#20B486" fill="#20B486"/></symbol><symbol id="header-codevecov" viewBox="0 0 187 36"><path d="M59.587 9.092c2.673 0 4.81.89 6.593 2.73l.119.12 2.376-2.316-.06-.118c-2.138-2.374-5.405-3.68-9.147-3.68-7.365 0-12.77 5.104-12.77 12.168 0 7.063 5.345 12.168 12.71 12.168 3.743 0 7.01-1.306 9.207-3.74l.06-.119-2.376-2.314-.12.118c-1.781 1.84-3.979 2.79-6.592 2.79-5.346 0-9.207-3.74-9.207-8.903 0-5.164 3.92-8.904 9.207-8.904zm19.245 17.985c-3.505 0-5.94-2.552-5.94-6.113 0-3.621 2.435-6.114 5.94-6.114 3.504 0 5.94 2.493 5.94 6.114 0 3.62-2.436 6.113-5.94 6.113zm0-15.314c-5.524 0-9.504 3.858-9.504 9.2 0 5.342 3.98 9.2 9.504 9.2 5.524 0 9.503-3.858 9.503-9.2 0-5.342-4.039-9.2-9.503-9.2zm20.195 15.314c-3.505 0-6-2.552-6-6.173 0-3.62 2.436-6.173 6-6.173 3.504 0 5.94 2.553 5.94 6.173s-2.436 6.173-5.94 6.173zm5.94-12.82c-1.485-1.722-3.624-2.612-6.178-2.612-5.464 0-9.266 3.798-9.266 9.26 0 5.46 3.802 9.259 9.266 9.259 2.614 0 4.871-1.01 6.296-2.79v2.552h3.386V4.641h-3.564l.06 9.615zm14.908.474c2.911 0 5.109 1.959 5.524 4.808h-10.988c.356-2.85 2.495-4.808 5.464-4.808zm0-2.968c-5.227 0-8.969 3.858-8.969 9.2 0 5.402 3.921 9.2 9.623 9.2 2.97 0 5.405-1.008 7.068-2.908l.06-.059-1.961-2.256-.118.12c-1.248 1.364-2.911 2.077-4.99 2.077-3.326 0-5.761-1.9-6.237-4.927h14.256v-.119c.059-.297.059-.712.059-1.009.06-5.52-3.623-9.319-8.791-9.319zm25.066 12.821c-1.069 1.603-2.732 2.493-4.811 2.493-3.623 0-6.058-2.493-6.058-6.113 0-3.621 2.494-6.114 6.058-6.114 2.079 0 3.742.83 4.811 2.493l.06.119 2.732-1.722-.059-.119c-1.426-2.433-4.158-3.858-7.484-3.858-5.584 0-9.682 3.858-9.682 9.2 0 5.342 4.098 9.2 9.682 9.2 3.326 0 6.058-1.424 7.484-3.917l.059-.118-2.732-1.662-.06.118zm13.484 2.493c-3.505 0-5.94-2.552-5.94-6.113 0-3.621 2.435-6.114 5.94-6.114 3.504 0 5.939 2.493 5.939 6.114 0 3.62-2.435 6.113-5.939 6.113zm0-15.314c-5.524 0-9.504 3.858-9.504 9.2 0 5.342 3.98 9.2 9.504 9.2 5.524 0 9.503-3.858 9.503-9.2 0-5.342-4.039-9.2-9.503-9.2zm24.472 0l-6.059 13.89-5.94-13.89h-3.623l7.781 17.748.059.06h3.446l7.781-17.808h-3.445zM19.033 0C8.62 0 .138 8.392.138 18.63v.083L3.33 20.56h.084c2.016-1.342 4.451-1.846 6.886-1.426 1.68.335 3.275 1.09 4.535 2.266l.588.503.336-.671c.335-.672.671-1.259 1.007-1.846.168-.252.336-.42.504-.672l.336-.42-.42-.335c-1.763-1.426-3.863-2.433-6.13-2.853-2.183-.42-4.367-.336-6.382.335 1.512-6.629 7.39-11.328 14.36-11.328 3.947 0 7.641 1.51 10.413 4.28a13.775 13.775 0 013.946 7.049c-1.26-.42-2.603-.588-3.946-.588h-.252c-.504 0-1.008.084-1.596.084h-.084c-.168 0-.42.084-.588.084-.336.084-.587.084-.923.168l-.252.084-.756.252h-.084c-.588.167-1.092.42-1.68.67-.252.085-.503.253-.755.42h-.084c-1.26.756-2.436 1.679-3.36 2.854l-.083.167c-.252.336-.42.588-.588.756-.168.168-.252.42-.42.67l-.084.169c-.168.252-.252.503-.336.671v.084c-.252.503-.504 1.09-.672 1.678v.084a14.27 14.27 0 00-.672 4.28V29.623c0 .167.085.419.085.587.42 2.014 1.343 3.944 2.77 5.706l.085.084.084-.084c.587-.671 1.931-2.77 2.099-4.028a8.674 8.674 0 01-1.008-4.028c0-4.7 3.695-8.643 8.482-8.895h.336c1.931-.084 3.863.503 5.458 1.595h.084l3.191-1.847v-.084c0-4.95-1.931-9.65-5.542-13.174C28.774 1.93 24.07 0 19.033 0z" fill="#000" fill-opacity="0.4"/></symbol><symbol id="header-duolingo" viewBox="0 0 154 36"><path d="M133.037 18c0-5.693 4.323-9.705 10.051-9.705s10.05 4.012 10.05 9.705c0 5.693-4.322 9.705-10.05 9.705-5.728 0-10.051-4.066-10.051-9.705zm14.428 0c0-2.657-1.676-4.608-4.323-4.608-2.648 0-4.323 1.951-4.323 4.608 0 2.657 1.675 4.608 4.323 4.608 2.647 0 4.323-1.897 4.323-4.608zm-18.211-4.5c.379.759.541 1.572.541 2.44 0 2.06-1.081 3.958-2.81 5.421 2.378 1.139 3.782 3.904 3.782 6.506 0 4.88-3.944 8.133-9.942 8.133s-9.943-3.199-9.943-8.133a7.243 7.243 0 013.783-6.506c-1.784-1.463-2.81-3.361-2.81-5.421 0-4.283 3.35-7.428 8.645-7.428 3.135 0 4.053.542 5.836.542a6.045 6.045 0 003.459-.921c.378-.217.756-.38 1.189-.38.702 0 1.08.705 1.08 1.572.163 1.898-1.026 3.579-2.81 4.175zm-4.052 14.205c0-2.169-1.675-3.687-4.323-3.687-2.648 0-4.323 1.464-4.323 3.687 0 2.06 1.837 3.687 4.323 3.687 2.485 0 4.323-1.627 4.323-3.687zm-7.836-11.44c.055 1.898 1.676 3.416 3.621 3.361 1.837-.054 3.242-1.518 3.35-3.36 0-1.953-1.405-3.308-3.458-3.308s-3.513 1.301-3.513 3.307zm-9.078 2.114v6.778c0 1.3-.486 1.843-1.891 1.843h-1.891c-1.405 0-1.891-.542-1.891-1.843v-6.615c0-1.68-.271-2.873-.865-3.632-.702-.868-1.783-1.302-2.864-1.247-1.135-.055-2.215.433-2.972 1.247-.648.759-1.08 1.951-1.08 3.578v6.614c0 1.356-.595 1.844-1.892 1.844h-1.891c-1.297 0-1.891-.488-1.891-1.844V9.922c0-.868.432-1.247 1.08-1.247.973 0 2.324.813 3.35 2.385a8.216 8.216 0 016.107-2.71c2.756 0 4.971.975 6.43 2.602 1.459 1.626 2.161 3.85 2.161 7.428zM78.785 3.09c0-1.735 1.459-3.09 3.134-3.09h.108c1.675.108 2.972 1.572 2.864 3.253-.108 1.68-1.567 2.982-3.242 2.873-1.621-.054-2.864-1.41-2.864-3.036zm.378 22.067v-14.26c0-1.3.486-1.897 1.891-1.897h1.892c1.404 0 1.89.542 1.89 1.898v14.259c0 1.3-.486 1.843-1.89 1.843h-1.892c-1.405 0-1.891-.542-1.891-1.843zm-9.997 0V7.265c0-4.5 2.486-7.048 4.593-7.048.649 0 1.081.434 1.081 1.247v23.693c0 1.355-.54 1.843-1.891 1.843h-1.891c-1.297 0-1.892-.488-1.892-1.843zM45.823 18c0-5.693 4.322-9.705 10.05-9.705 5.728 0 10.051 4.012 10.051 9.705 0 5.693-4.323 9.705-10.05 9.705-5.729 0-10.051-4.066-10.051-9.705zm14.373 0c0-2.657-1.675-4.608-4.323-4.608-2.648 0-4.322 1.951-4.322 4.608 0 2.657 1.674 4.608 4.322 4.608s4.323-1.897 4.323-4.608zm-17.291-7.102v15.18c0 .868-.433 1.247-1.081 1.247-.973 0-2.324-.813-3.296-2.331a7.67 7.67 0 01-5.998 2.657 8.32 8.32 0 01-5.836-2.169c-1.675-1.627-2.594-4.12-2.594-7.699v-6.885C24.1 9.596 24.586 9 25.991 9h1.892c1.405 0 1.89.542 1.89 1.898v6.397c0 2.169.38 3.307 1.082 4.066a3.41 3.41 0 002.54.976c1.026 0 1.999-.38 2.701-1.138.703-.76 1.08-1.952 1.08-3.795v-6.506c0-1.356.595-1.898 1.892-1.898h1.892c1.35 0 1.945.542 1.945 1.898zM20.209 1.464v24.614c0 .868-.432 1.247-1.08 1.247-.973 0-2.324-.813-3.296-2.277-1.19 1.41-3.62 2.657-6.43 2.657C3.782 27.705 0 23.585 0 18c0-5.584 3.89-9.705 9.402-9.705 1.838 0 3.62.542 5.188 1.572V7.265c0-4.5 2.54-7.048 4.593-7.048.648 0 1.026.434 1.026 1.247zM14.59 18c0-2.765-1.944-4.608-4.376-4.608-2.432 0-4.431 1.843-4.431 4.608 0 2.765 1.945 4.608 4.43 4.608 2.486 0 4.378-1.789 4.378-4.608z" fill="#000" fill-opacity="0.4"/></symbol><symbol id="header-EllipseGreen" viewBox="0 0 285 476"><circle cx="47" cy="238" r="238" fill="url(#paint0_radial_1_66)" fill-opacity="0.12"/><defs><radialGradient id="paint0_radial_1_66" cx="0" cy="0" r="1" gradientUnits="userSpaceOnUse" gradientTransform="matrix(0 238 -238 0 47 238)"><stop stop-color="#24BB8C"/><stop offset="1" stop-color="#24BB8C" stop-opacity="0"/></radialGradient></defs></symbol><symbol id="header-EllipseOrang" viewBox="0 0 300 490"><circle cx="245" cy="245" r="245" fill="url(#paint0_radial_1_65)" fill-opacity="0.16"/><defs><radialGradient id="paint0_radial_1_65" cx="0" cy="0" r="1" gradientUnits="userSpaceOnUse" gradientTransform="rotate(90 0 245) scale(245)"><stop stop-color="#FBCE9A"/><stop offset="1" stop-color="#FBCE9A" stop-opacity="0"/></radialGradient></defs></symbol><symbol id="header-magicleap" viewBox="0 0 235 36"><path d="M100.4 23.037c-2.382 0-4.92-1.64-4.92-5.271 0-3.631 2.538-5.271 4.92-5.271s4.919 1.64 4.919 5.27c0 3.632-2.537 5.272-4.919 5.272zm8.785-5.232c0-5.7-4.256-9.059-9.02-9.059-4.763 0-8.629 3.749-8.629 9.059 0 5.076 3.554 8.785 8.083 9.058.703.04 3.787 0 6.208-2.577h.078l2.811 2.577h.547v-8.902c-.039 0-.078-.156-.078-.156zm26.2-17.766a2.533 2.533 0 012.538 2.538 2.533 2.533 0 01-2.538 2.538c-1.328 0-2.46-1.132-2.46-2.538s1.093-2.538 2.46-2.538zm-1.797 26.824h3.671V8.785h-3.671v18.078zm20.07-6.247c-.898 1.679-2.616 2.46-4.256 2.46-2.382 0-4.92-1.64-4.92-5.271 0-3.631 2.538-5.271 4.92-5.271 1.64 0 3.358.78 4.256 2.42l3.397-1.99c-1.562-2.734-4.412-4.296-7.653-4.296-4.764 0-8.863 3.553-8.863 9.059 0 5.544 4.06 9.097 8.863 9.097 3.241 0 6.091-1.562 7.653-4.295l-3.397-1.913zM80.76 8.395c-1.406 0-2.773.39-3.866 1.054-.468.312-1.405 1.015-1.796 1.718h-.078c-.39-.703-1.327-1.406-1.796-1.718-1.132-.703-2.46-1.054-3.865-1.054-4.217 0-7.653 3.514-7.653 7.809v10.503h3.904V16.204c0-2.109 1.68-3.866 3.788-3.866 2.069 0 3.787 1.718 3.787 3.866v10.503h3.866V16.204c0-2.109 1.678-3.866 3.787-3.866 2.07 0 3.787 1.718 3.787 3.866v10.503h3.905V16.204c-.117-4.334-3.553-7.81-7.77-7.81zm92.811 18.312c-3.748 0-6.755-2.343-6.755-6.677V3.826h3.788v15.892c0 2.108 1.171 3.163 2.967 3.163v3.826zm52.477-3.397c-2.381 0-4.919-1.64-4.919-5.271 0-3.631 2.538-5.271 4.919-5.271 2.382 0 4.92 1.64 4.92 5.271-.039 3.631-2.577 5.271-4.92 5.271zm8.864-5.31c0-5.505-4.061-9.059-8.864-9.059-4.568 0-8.512 3.241-8.863 8.278v18.703h3.67V24.521c1.523 2.225 4.491 2.498 5.467 2.537h.351-.039c4.178-.078 8.278-3.514 8.278-9.058zm-29.948 5.271c-2.382 0-4.92-1.64-4.92-5.271 0-3.631 2.538-5.271 4.92-5.271s4.919 1.64 4.919 5.271c-.039 3.67-2.577 5.271-4.919 5.271zM213.71 18c0-5.7-4.256-9.059-9.02-9.059-4.763 0-8.629 3.749-8.629 9.059 0 5.154 3.632 8.824 8.2 9.058h.351c.547 0 1.445-.078 2.499-.468.274-.078.508-.234.781-.352a7.95 7.95 0 002.226-1.717h.078l2.967 2.498h.547V18zm-29.167-5.388c2.382 0 4.1 1.405 4.803 3.319h-9.528c.703-1.992 2.421-3.32 4.725-3.32zm4.139 8.512c-.898 1.288-2.382 2.07-4.139 2.07-2.694 0-4.529-1.719-4.998-3.984h13.822c.039-.39.078-.82.078-1.21 0-4.998-3.982-9.098-8.902-9.098-4.92 0-8.902 4.1-8.902 9.098 0 4.998 3.982 9.098 8.902 9.098 3.28 0 6.091-1.796 7.653-4.452l-3.514-1.522zm-67.744 1.952c-2.382 0-4.92-1.64-4.92-5.271 0-3.631 2.538-5.271 4.92-5.271 2.381 0 4.958 1.64 4.958 5.27.04 3.671-2.537 5.272-4.958 5.272zm8.863-5.31c0-5.506-4.1-8.98-8.863-8.98-4.764 0-8.864 3.552-8.864 9.058 0 5.544 4.1 9.098 8.59 9.098h.508c1.484-.157 2.928-.742 4.061-1.758l.234-.234c.273-.312.469-.703.547-1.054v2.733s.078 2.03-1.25 3.592c-.937 1.172-2.421 1.757-3.787 1.757-1.757 0-3.671-.937-4.49-2.889l-3.632 1.523c1.406 3.24 4.53 5.193 8.044 5.193 4.802 0 8.863-3.553 8.863-9.059l.039-8.98zm-86.837-4.373C40.972 5.7 34.1 0 25.94 0S10.907 5.7 8.916 13.393A26.961 26.961 0 00.638 26.942c2.89-1.016 5.857-1.836 8.903-2.382C12.118 31.276 18.482 36 25.94 36c7.497 0 13.861-4.724 16.4-11.44 3.279.625 6.246 1.405 8.901 2.382a26.961 26.961 0 00-8.277-13.55zm-22.451-.313c-.781 2.538-3.085 4.022-5.116 3.358-2.069-.664-3.084-3.201-2.342-5.74.742-2.537 3.084-4.021 5.115-3.357 2.03.624 3.084 3.24 2.342 5.74zm15.891 3.358c-2.07.664-4.334-.859-5.115-3.358-.78-2.538.273-5.076 2.343-5.74 2.07-.663 4.334.86 5.115 3.358.82 2.538-.234 5.076-2.343 5.74z" fill="#000" fill-opacity="0.4"/></symbol><symbol id="header-UserTesting" viewBox="0 0 141 36"><path fill-rule="evenodd" clip-rule="evenodd" d="M61.457 23.898V5.565A5.569 5.569 0 0055.892 0H5.953A5.568 5.568 0 00.388 5.565v18.333a5.568 5.568 0 005.565 5.565h36.162L51.912 36l-1.963-6.537h5.98c3.043-.018 5.546-2.504 5.528-5.565zm-50.515-5.475c.288.505.666.9 1.152 1.153.486.27 1.009.396 1.603.396.594 0 1.135-.144 1.62-.414a3.049 3.049 0 001.153-1.189c.289-.522.433-1.098.433-1.765v-8.23a.38.38 0 01.108-.288.38.38 0 01.288-.108h1.999c.126 0 .234.036.306.108.036.036.072.09.09.126.018.054.036.108.018.162v8.212c0 1.315-.27 2.414-.81 3.314-.54.882-1.261 1.549-2.162 1.963-.9.432-1.926.63-3.043.63-1.117 0-2.125-.216-3.044-.648-.918-.432-1.638-1.099-2.179-1.981-.54-.883-.81-1.981-.81-3.296V8.374c0-.108.036-.198.108-.27a.477.477 0 01.108-.09.34.34 0 01.144-.036h2.107c.126 0 .234.036.288.108.054.072.09.162.09.288v8.23c0 .703.144 1.315.433 1.82zm10.66 1.423a.64.64 0 00.037.18l.108.216a4.746 4.746 0 001.819 1.657c.756.396 1.62.594 2.575.594.757 0 1.495-.144 2.197-.414A4.056 4.056 0 0030.05 20.8c.432-.558.649-1.242.649-2.053 0-.846-.27-1.62-.81-2.287-.541-.684-1.352-1.17-2.45-1.513a4.897 4.897 0 00-.396-.126c-.126-.036-.234-.072-.324-.09-.54-.144-.937-.27-1.19-.378-.251-.108-.467-.234-.611-.378-.163-.162-.235-.36-.235-.63 0-.343.145-.613.433-.829.288-.216.684-.324 1.188-.324.487 0 .883.09 1.207.252.324.162.63.432.936.775.108.126.199.198.307.198.072 0 .162-.036.252-.126l1.134-.937c.126-.108.198-.198.198-.288 0-.072-.054-.18-.144-.324a5.464 5.464 0 00-1.62-1.369c-.649-.378-1.423-.558-2.342-.558-.846 0-1.585.162-2.233.504-.648.342-1.135.775-1.495 1.315-.342.54-.522 1.08-.522 1.639 0 .684.126 1.278.396 1.764.27.487.667.901 1.207 1.243.54.342 1.242.648 2.125.919.378.108.612.18.666.198.433.126.757.234.955.324.216.09.378.198.486.36.126.162.18.378.18.666 0 .27-.108.523-.306.739a2.22 2.22 0 01-.792.504 3 3 0 01-.973.18c-.54 0-.99-.126-1.35-.378a4.212 4.212 0 01-1.01-1.027c-.107-.144-.215-.216-.341-.216-.072 0-.144.036-.216.072l-1.243.883c-.108.108-.162.216-.162.342zm20.333-1.027c.108 0 .18.036.234.127l.99 1.206c.073.108.127.198.127.288 0 .108-.054.198-.144.288-.72.63-1.423 1.08-2.143 1.369a6.367 6.367 0 01-2.287.414 6.183 6.183 0 01-3.116-.846 6.476 6.476 0 01-2.323-2.305 6.06 6.06 0 01-.865-3.152c0-1.152.27-2.215.81-3.17a6.097 6.097 0 012.234-2.305c.954-.576 2.017-.846 3.187-.846.955 0 1.891.234 2.828.702.936.468 1.71 1.17 2.323 2.125.612.955.919 2.125.919 3.512 0 .306-.036.54-.109.684-.072.145-.18.235-.288.253a1.766 1.766 0 01-.576.036h-8.644c.126.576.378 1.08.72 1.512a3.5 3.5 0 001.279 1.009 3.81 3.81 0 001.62.36c.45 0 .829-.054 1.171-.144a3.45 3.45 0 00.81-.324c.253-.144.487-.306.703-.486l.288-.216c.09-.073.18-.09.252-.09zm-4.772-6.249a3.882 3.882 0 00-1.207.955 4.188 4.188 0 00-.774 1.35h6.861c-.288-.792-.738-1.44-1.332-1.927-.595-.486-1.297-.72-2.072-.72a3.065 3.065 0 00-1.476.342zm11.544-2.593H47.32c-.252 0-.378.144-.378.414v11.49c0 .27.126.396.378.396h1.98c.27 0 .397-.126.397-.396v-6.735c0-.613.108-1.117.342-1.531.234-.414.522-.72.9-.919.36-.198.757-.306 1.171-.306.414 0 .793.072 1.153.216.36.162.702.342 1.026.559.108.072.216.126.306.126.109 0 .18-.054.27-.162l.901-1.28a.433.433 0 00.108-.27c0-.125-.072-.251-.216-.395a7.029 7.029 0 00-1.405-.9 3.946 3.946 0 00-1.837-.433c-.612 0-1.17.144-1.674.432a3.465 3.465 0 00-1.243 1.207l-.198-1.063c-.036-.198-.09-.324-.198-.378-.09-.054-.216-.072-.396-.072z" fill="#000" fill-opacity="0.4"/><path d="M65.004 7.978h10.302c.252 0 .378.126.378.378v1.82c0 .251-.126.395-.378.395h-3.8V21.9c0 .252-.126.378-.379.378h-2.07c-.252 0-.379-.126-.379-.378V10.553h-3.691c-.252 0-.379-.126-.379-.396v-1.8c.018-.253.144-.379.396-.379zM84.887 18.82c.108 0 .18.036.234.126l.99 1.206c.072.108.126.198.126.288 0 .108-.054.199-.144.289-.72.63-1.423 1.08-2.143 1.368-.72.288-1.477.415-2.287.415a6.183 6.183 0 01-3.116-.847 6.48 6.48 0 01-2.323-2.305 6.06 6.06 0 01-.864-3.152c0-1.152.27-2.215.81-3.17a6.098 6.098 0 012.233-2.304c.955-.577 2.017-.847 3.188-.847.954 0 1.909.234 2.827.703.937.468 1.711 1.17 2.323 2.125.613.954.919 2.125.919 3.511 0 .306-.036.54-.108.685-.072.144-.18.234-.288.252a2.3 2.3 0 01-.577.054h-8.626c.126.576.378 1.08.72 1.513a3.5 3.5 0 001.28 1.008c.503.234 1.044.36 1.638.36.45 0 .828-.054 1.17-.144.325-.09.595-.198.81-.324.253-.144.487-.306.703-.486l.288-.216c.036-.09.127-.108.217-.108zm-4.79-6.25a3.879 3.879 0 00-1.207.955 4.198 4.198 0 00-.775 1.35h6.88c-.289-.792-.739-1.44-1.333-1.926s-1.297-.72-2.09-.72a3.019 3.019 0 00-1.476.342zM88.488 20.026a.64.64 0 01-.036-.18c0-.126.054-.234.163-.342l1.224-.937a.232.232 0 01.216-.072c.126 0 .252.072.342.216.306.432.649.775 1.009 1.027.36.252.81.378 1.35.378.343 0 .667-.054.973-.18.324-.126.594-.288.792-.504.198-.216.306-.469.306-.739 0-.288-.053-.504-.18-.666a1.23 1.23 0 00-.486-.36 7.995 7.995 0 00-.954-.325c-.072-.017-.288-.072-.666-.198-.883-.27-1.585-.576-2.126-.918-.54-.342-.936-.756-1.206-1.243-.27-.486-.397-1.08-.397-1.764 0-.559.18-1.1.523-1.64.342-.54.846-.972 1.495-1.314.648-.342 1.386-.504 2.233-.504.9 0 1.692.18 2.34.558a5.744 5.744 0 011.622 1.369c.108.126.144.234.144.324s-.072.198-.198.288l-1.135.936c-.108.072-.18.127-.252.127-.09 0-.198-.072-.306-.199a3.353 3.353 0 00-.937-.774c-.324-.162-.738-.252-1.206-.252-.505 0-.9.108-1.189.324-.288.216-.432.486-.432.829 0 .27.072.468.234.63.162.162.36.288.612.378.252.108.666.216 1.189.378.108.018.216.054.324.09.126.036.252.072.396.126 1.099.324 1.91.829 2.45 1.513.54.684.81 1.44.81 2.287 0 .793-.216 1.477-.648 2.053a4.092 4.092 0 01-1.711 1.279 5.42 5.42 0 01-2.198.414c-.954 0-1.818-.198-2.575-.594a4.88 4.88 0 01-1.819-1.657c-.017-.018-.053-.09-.09-.162zM104.138 10.067c.27 0 .414.144.414.415v1.584c0 .126-.036.234-.126.306a.503.503 0 01-.324.108h-1.386v5.997c0 .433.072.775.234 1.045.162.252.432.396.81.414l.306.018c.216.018.36.072.414.18a.62.62 0 01.072.36v1.37c0 .323-.252.485-.738.485-.756 0-1.423-.144-1.999-.432a3.169 3.169 0 01-1.369-1.242c-.324-.54-.486-1.171-.486-1.891v-6.285h-1.116a.41.41 0 01-.289-.109c-.09-.072-.126-.18-.126-.306v-1.566c0-.145.036-.253.126-.343a.41.41 0 01.289-.108h1.116V8.05c0-.144.018-.234.072-.306.054-.072.162-.108.306-.162l1.963-.576c.036-.018.072-.018.108-.018.036 0 .09.018.126.036a.217.217 0 01.09.09c.055.072.073.18.073.306v2.63l1.44.017zM107.182 5.583h1.675c.36 0 .54.198.54.612v1.693c0 .198-.036.342-.126.414a.666.666 0 01-.414.126h-1.675c-.396 0-.595-.18-.595-.54V6.195c0-.414.199-.612.595-.612zm-.396 4.502a.366.366 0 01.27-.108h2.035c.108 0 .198.036.27.108a.38.38 0 01.108.288v11.508c0 .252-.126.396-.378.396h-2.035c-.252 0-.378-.126-.378-.396V10.373a.38.38 0 01.108-.288zM114.223 22.17a.708.708 0 01-.378.107h-1.765c-.27 0-.414-.144-.414-.414v-11.49c0-.27.144-.414.414-.414h1.297c.126 0 .27.054.36.144.108.09.18.216.216.342l.162 1.387c.468-.666 1.027-1.152 1.693-1.477a4.832 4.832 0 012.125-.486c.738 0 1.459.18 2.161.558.703.379 1.279.955 1.747 1.73.45.774.684 1.746.684 2.899v6.79c0 .27-.126.395-.378.395h-1.927c-.27 0-.414-.126-.414-.396v-6.7c0-.467-.108-.9-.342-1.314a2.841 2.841 0 00-.955-1.008 2.565 2.565 0 00-1.368-.379 2.57 2.57 0 00-1.279.343 2.753 2.753 0 00-1.044.99 2.774 2.774 0 00-.415 1.495v6.555a.46.46 0 01-.18.342zM135.888 23.43c-.54.972-1.26 1.71-2.197 2.215-.936.504-2.017.738-3.224.738-.81 0-1.602-.144-2.377-.414a6.237 6.237 0 01-2.017-1.117c-.108-.09-.162-.18-.162-.288 0-.072.036-.162.126-.288l.811-1.17c.09-.127.198-.199.342-.199.108 0 .216.037.342.127.846.594 1.891.882 3.17.882.648 0 1.224-.144 1.728-.432.505-.27.919-.685 1.189-1.189.288-.504.432-1.08.432-1.729v-.036c-.54.576-1.116 1.009-1.711 1.297-.594.288-1.296.432-2.089.432-1.062 0-2.071-.252-2.989-.792-.937-.523-1.675-1.26-2.233-2.197-.559-.937-.847-2-.829-3.188 0-1.117.27-2.161.829-3.116a6.514 6.514 0 012.233-2.305c.936-.576 1.927-.864 2.989-.864 1.531 0 2.846.594 3.944 1.765l.162-1.135c.018-.18.072-.306.144-.378.073-.072.181-.108.325-.108h1.548c.235 0 .361.144.361.414v9.455c-.054 1.459-.325 2.647-.847 3.62zm-2.269-9.203a3.733 3.733 0 00-1.315-1.387 3.487 3.487 0 00-1.873-.522c-.72 0-1.35.18-1.909.522-.558.343-.972.81-1.296 1.405a4.12 4.12 0 00-.468 1.927c0 .738.162 1.387.486 1.963a3.55 3.55 0 001.333 1.35 3.673 3.673 0 001.872.487c.685 0 1.297-.162 1.837-.504.541-.343.973-.81 1.297-1.387a4.1 4.1 0 00.468-1.909 3.69 3.69 0 00-.432-1.945zM139.022 9.977c-.775 0-1.405.63-1.405 1.405 0 .774.63 1.405 1.405 1.405.774 0 1.404-.63 1.404-1.405 0-.757-.63-1.405-1.404-1.405zm0 2.521a1.118 1.118 0 01-1.099-1.116c0-.612.504-1.117 1.099-1.117.594 0 1.098.486 1.098 1.117 0 .612-.504 1.116-1.098 1.116z" fill="#000" fill-opacity="0.4"/><path d="M138.481 10.625s.018-.018.036-.018h.649c.09 0 .18.018.252.072a.856.856 0 01.18.18.587.587 0 01.072.253.45.45 0 01-.072.252c-.054.072-.108.144-.198.18l.288.558v.036h-.324s-.018-.018-.018-.036l-.252-.504h-.306v.486c0 .036-.018.036-.036.036h-.217c-.036 0-.036-.018-.036-.036v-1.459c-.036.018-.036 0-.018 0zm.289.739h.324a.26.26 0 00.216-.126.26.26 0 00.036-.126.334.334 0 00-.036-.126.217.217 0 00-.09-.09.26.26 0 00-.126-.037h-.324v.505z" fill="#000" fill-opacity="0.4"/></symbol><symbol id="popular-arrow" viewBox="0 0 12 12"><path d="M1 11L11 1m0 0H1m10 0v10" stroke="#101828" stroke-width="2" stroke-linecap="round" stroke-linejoin="round"/></symbol><symbol id="popular-star" viewBox="0 0 14 13"><path d="M6.524.464a.5.5 0 01.952 0l1.208 3.718a.5.5 0 00.475.346h3.91a.5.5 0 01.294.904L10.2 7.731a.5.5 0 00-.182.559l1.209 3.719a.5.5 0 01-.77.559l-3.163-2.299a.5.5 0 00-.588 0l-3.163 2.299a.5.5 0 01-.77-.56L3.982 8.29a.5.5 0 00-.182-.56L.636 5.433a.5.5 0 01.294-.904h3.91a.5.5 0 00.476-.346L6.524.464z" fill="#FF9B26"/></symbol><symbol id="social-dribbble" viewBox="0 0 24 24"><path fill-rule="evenodd" clip-rule="evenodd" d="M12 0C5.375 0 0 5.375 0 12s5.375 12 12 12c6.612 0 12-5.375 12-12S18.612 0 12 0zm7.926 5.531a10.202 10.202 0 012.317 6.378c-.338-.065-3.722-.755-7.132-.325-.079-.17-.144-.352-.222-.534a30.53 30.53 0 00-.676-1.484c3.774-1.536 5.492-3.748 5.713-4.035zM12 1.771c2.603 0 4.985.975 6.794 2.576-.182.26-1.731 2.33-5.375 3.696-1.68-3.084-3.54-5.61-3.827-6A10.424 10.424 0 0112 1.77zm-4.36.962c.273.365 2.095 2.903 3.8 5.922-4.79 1.276-9.02 1.25-9.475 1.25.664-3.176 2.812-5.818 5.675-7.172zm-5.896 9.28v-.312c.443.013 5.414.078 10.53-1.458.299.573.572 1.158.832 1.744-.13.039-.273.078-.403.117-5.284 1.705-8.096 6.364-8.33 6.755a10.226 10.226 0 01-2.629-6.846zM12 22.256c-2.369 0-4.555-.807-6.286-2.16.182-.378 2.264-4.387 8.043-6.404.026-.013.04-.013.065-.026 1.445 3.735 2.03 6.872 2.187 7.77-1.237.534-2.59.82-4.009.82zm5.714-1.757c-.104-.625-.651-3.618-1.992-7.302 3.215-.507 6.026.326 6.378.443-.443 2.85-2.083 5.31-4.386 6.859z" fill="#98A2B3"/></symbol><symbol id="social-facebook" viewBox="0 0 24 24"><path d="M24 12c0-6.627-5.373-12-12-12S0 5.373 0 12c0 5.99 4.388 10.954 10.125 11.854V15.47H7.078V12h3.047V9.356c0-3.007 1.792-4.668 4.533-4.668 1.312 0 2.686.234 2.686.234v2.953H15.83c-1.491 0-1.956.925-1.956 1.875V12h3.328l-.532 3.469h-2.796v8.385C19.612 22.954 24 17.99 24 12z" fill="#98A2B3"/></symbol><symbol id="social-github" viewBox="0 0 24 24"><g clip-path="url(#clip0_1_706)"><path fill-rule="evenodd" clip-rule="evenodd" d="M12 0C5.372 0 0 5.38 0 12.02a12.02 12.02 0 008.207 11.405c.6.11.818-.26.818-.58 0-.284-.01-1.041-.015-2.043-3.339.726-4.043-1.612-4.043-1.612-.545-1.39-1.332-1.759-1.332-1.759-1.09-.744.083-.73.083-.73 1.203.085 1.837 1.239 1.837 1.239 1.07 1.836 2.809 1.306 3.492.998.11-.776.42-1.305.763-1.605-2.664-.304-5.466-1.336-5.466-5.941 0-1.312.468-2.386 1.235-3.226-.124-.304-.535-1.526.117-3.18 0 0 1.008-.324 3.3 1.231A11.477 11.477 0 0112 5.813c1.02.005 2.046.138 3.005.404 2.29-1.555 3.296-1.232 3.296-1.232.655 1.655.243 2.877.12 3.181.768.84 1.234 1.914 1.234 3.226 0 4.617-2.807 5.634-5.48 5.931.431.371.814 1.104.814 2.226 0 1.606-.014 2.903-.014 3.297 0 .321.216.696.825.578A12.023 12.023 0 0024 12.02C24 5.38 18.626 0 12 0z" fill="#98A2B3"/></g><defs><clipPath id="clip0_1_706"><path fill="#fff" d="M0 0h24v24H0z"/></clipPath></defs></symbol><symbol id="social-linkedin " viewBox="0 0 24 24"><path d="M22.223 0H1.772C.792 0 0 .773 0 1.73v20.536C0 23.222.792 24 1.772 24h20.451c.98 0 1.777-.778 1.777-1.73V1.73C24 .773 23.203 0 22.223 0zM7.12 20.452H3.558V8.995H7.12v11.457zM5.34 7.434a2.064 2.064 0 110-4.125 2.063 2.063 0 010 4.125zm15.112 13.018h-3.558v-5.57c0-1.326-.024-3.037-1.852-3.037-1.851 0-2.133 1.449-2.133 2.944v5.663H9.356V8.995h3.413v1.566h.047c.473-.9 1.636-1.852 3.365-1.852 3.605 0 4.27 2.372 4.27 5.457v6.286z" fill="#98A2B3"/></symbol><symbol id="social-linkedIn" viewBox="0 0 24 24"><path d="M22.223 0H1.772C.792 0 0 .773 0 1.73v20.536C0 23.222.792 24 1.772 24h20.451c.98 0 1.777-.778 1.777-1.73V1.73C24 .773 23.203 0 22.223 0zM7.12 20.452H3.558V8.995H7.12v11.457zM5.34 7.434a2.064 2.064 0 110-4.125 2.063 2.063 0 010 4.125zm15.112 13.018h-3.558v-5.57c0-1.326-.024-3.037-1.852-3.037-1.851 0-2.133 1.449-2.133 2.944v5.663H9.356V8.995h3.413v1.566h.047c.473-.9 1.636-1.852 3.365-1.852 3.605 0 4.27 2.372 4.27 5.457v6.286z" fill="#98A2B3"/></symbol><symbol id="social-twitter" viewBox="0 0 24 20"><path d="M7.55 19.75c9.055 0 14.008-7.503 14.008-14.008 0-.211-.004-.427-.014-.638A10 10 0 0024 2.555c-.898.4-1.85.66-2.826.774A4.95 4.95 0 0023.339.606 9.897 9.897 0 0120.213 1.8a4.93 4.93 0 00-8.394 4.49A13.985 13.985 0 011.673 1.15a4.93 4.93 0 001.523 6.57 4.93 4.93 0 01-2.23-.614v.06a4.922 4.922 0 003.95 4.829 4.895 4.895 0 01-2.221.084 4.934 4.934 0 004.597 3.422A9.875 9.875 0 010 17.538a13.969 13.969 0 007.55 2.212z" fill="#98A2B3"/></symbol><symbol id="tutors-linkedin" viewBox="0 0 20 20"><path d="M18.52 0H1.477C.66 0 0 .645 0 1.441v17.114C0 19.352.66 20 1.477 20H18.52c.816 0 1.48-.648 1.48-1.441V1.44C20 .645 19.336 0 18.52 0zM5.934 17.043h-2.97V7.496h2.97v9.547zM4.449 6.195a1.72 1.72 0 11-.006-3.439 1.72 1.72 0 01.006 3.44zm12.594 10.848h-2.965v-4.64c0-1.106-.02-2.532-1.543-2.532-1.543 0-1.777 1.207-1.777 2.453v4.719H7.797V7.496h2.844v1.305h.039c.394-.75 1.363-1.543 2.804-1.543 3.004 0 3.559 1.976 3.559 4.547v5.238z" fill="#98A2B3"/></symbol><symbol id="tutors-twitter" viewBox="0 0 20 18"><path d="M6.292 17.125c7.545 0 11.673-6.253 11.673-11.673 0-.176-.004-.356-.012-.532A8.332 8.332 0 0020 2.796a8.09 8.09 0 01-2.355.645 4.125 4.125 0 001.804-2.27 8.247 8.247 0 01-2.605.996A4.108 4.108 0 009.85 5.91a11.654 11.654 0 01-8.456-4.284A4.108 4.108 0 002.664 7.1a4.108 4.108 0 01-1.86-.512v.051a4.102 4.102 0 003.293 4.023 4.078 4.078 0 01-1.851.07 4.112 4.112 0 003.831 2.852A8.229 8.229 0 010 15.282a11.64 11.64 0 006.292 1.843z" fill="#98A2B3"/></symbol> <view id="header-circles1-view" viewBox="0 0 414 414"/><view id="header-circles2-view" viewBox="0 424 414 414"/><view id="header-codevecov-view" viewBox="0 848 187 36"/><view id="header-duolingo-view" viewBox="0 894 154 36"/><view id="header-EllipseGreen-view" viewBox="0 940 285 476"/><view id="header-EllipseOrang-view" viewBox="0 1426 300 490"/><view id="header-magicleap-view" viewBox="0 1926 235 36"/><view id="header-UserTesting-view" viewBox="0 1972 141 36"/><view id="popular-arrow-view" viewBox="0 2018 12 12"/><view id="popular-star-view" viewBox="0 2040 14 13"/><view id="social-dribbble-view" viewBox="0 2063 24 24"/><view id="social-facebook-view" viewBox="0 2097 24 24"/><view id="social-github-view" viewBox="0 2131 24 24"/><view id="social-linkedin -view" viewBox="0 2165 24 24"/><view id="social-linkedIn-view" viewBox="0 2199 24 24"/><view id="social-twitter-view" viewBox="0 2233 24 20"/><view id="tutors-linkedin-view" viewBox="0 2263 20 20"/><view id="tutors-twitter-view" viewBox="0 2293 20 18"/> <use xlink:href="#header-circles1" x="0" y="0" width="414" height="414"/><use xlink:href="#header-circles2" x="0" y="424" width="414" height="414"/><use xlink:href="#header-codevecov" x="0" y="848" width="187" height="36"/><use xlink:href="#header-duolingo" x="0" y="894" width="154" height="36"/><use xlink:href="#header-EllipseGreen" x="0" y="940" width="285" height="476"/><use xlink:href="#header-EllipseOrang" x="0" y="1426" width="300" height="490"/><use xlink:href="#header-magicleap" x="0" y="1926" width="235" height="36"/><use xlink:href="#header-UserTesting" x="0" y="1972" width="141" height="36"/><use xlink:href="#popular-arrow" x="0" y="2018" width="12" height="12"/><use xlink:href="#popular-star" x="0" y="2040" width="14" height="13"/><use xlink:href="#social-dribbble" x="0" y="2063" width="24" height="24"/><use xlink:href="#social-facebook" x="0" y="2097" width="24" height="24"/><use xlink:href="#social-github" x="0" y="2131" width="24" height="24"/><use xlink:href="#social-linkedin " x="0" y="2165" width="24" height="24"/><use xlink:href="#social-linkedIn" x="0" y="2199" width="24" height="24"/><use xlink:href="#social-twitter" x="0" y="2233" width="24" height="20"/><use xlink:href="#tutors-linkedin" x="0" y="2263" width="20" height="20"/><use xlink:href="#tutors-twitter" x="0" y="2293" width="20" height="18"/></svg>